# xmcd
# 
# Track frame offsets:
#     150
#     13547
#     26457
#     39587
#     48715
#     63064
#     77822
#     95100
#     110379
#     122065
#     137535
#     154672
#     165317
#     179662
#     194325
#     208645
#     217984
#     229977
#     245500
#     256780
#     268317
#     279807
#     297035
#     314440
# 
# Disc length: 4347
# 
# Revision: 8
# Processed by: cddbd v1.5.2PL0 Copyright (c) Steve Scherf et al.
# Submitted via: BonkEnc v1.0.6
# 
DISCID=5310f918
DTITLE=Amado Dose Dupla V3 - Amado Batista - Dose Dupla V3
DYEAR=0
DGENRE=
TTITLE0=Casamento forcado - 2,58
TTITLE1=Pequenino ceu - 2,52
TTITLE2=Paixao violenta - 2,55
TTITLE3=Seu mane - 2,01
TTITLE4=Noite linda - 3,11
TTITLE5=Voce nao deixou nosso filho nascer - 3,16
TTITLE6=Posso morrer de amor - 3,50
TTITLE7=Vem morena - 3,23
TTITLE8=Acorde amor (8º andar) - 2,35
TTITLE9=Meu catalao - 3,26
TTITLE10=Folha seca - 3,48
TTITLE11=Passarinho - 2,21
TTITLE12=Borboletas - 3,11
TTITLE13=Sonho antigo - 3,15
TTITLE14=Suas cartinhas - 3,10
TTITLE15=Lembrando uma cancao - 2,04
TTITLE16=E um sonho esta vida - 2,39
TTITLE17=Tarde solitaria - 3,26
TTITLE18=Mae - 2,30
TTITLE19=Sem a presenca de amigos - 2,33
TTITLE20=Forasteiro - 2,33
TTITLE21=Cativo - 3,49
TTITLE22=Desisto (Obrigado a desistir) - 3,52
TTITLE23=Meu pressentimento - 2,35
EXTD=
EXTT0=
EXTT1=
EXTT2=
EXTT3=
EXTT4=
EXTT5=
EXTT6=
EXTT7=
EXTT8=
EXTT9=
EXTT10=
EXTT11=
EXTT12=
EXTT13=
EXTT14=
EXTT15=
EXTT16=
EXTT17=
EXTT18=
EXTT19=
EXTT20=
EXTT21=
EXTT22=
EXTT23=
PLAYORDER=
